<svg width="124" height="50" viewBox="0 0 124 50" fill="none" xmlns="http://www.w3.org/2000/svg">
<path d="M36.12 27.44C35.8267 30.08 34.92 32.4 33.4 34.4C31.88 36.3733 29.88 37.9067 27.4 39C24.9467 40.0933 22.12 40.64 18.92 40.64C15.4267 40.64 12.3733 39.9867 9.76 38.68C7.14667 37.3733 5.10667 35.5467 3.64 33.2C2.2 30.8533 1.48 28.12 1.48 25C1.48 21.88 2.2 19.1467 3.64 16.8C5.10667 14.4533 7.14667 12.6267 9.76 11.32C12.3733 10.0133 15.4267 9.36 18.92 9.36C22.12 9.36 24.9467 9.90667 27.4 11C29.88 12.0933 31.88 13.64 33.4 15.64C34.92 17.6133 35.8267 19.92 36.12 22.56H27.8C27.5333 21.28 27.0133 20.2 26.24 19.32C25.4667 18.4133 24.4533 17.72 23.2 17.24C21.9733 16.76 20.5467 16.52 18.92 16.52C17.0533 16.52 15.44 16.8667 14.08 17.56C12.72 18.2267 11.68 19.2 10.96 20.48C10.24 21.7333 9.88 23.24 9.88 25C9.88 26.76 10.24 28.28 10.96 29.56C11.68 30.8133 12.72 31.7867 14.08 32.48C15.44 33.1467 17.0533 33.48 18.92 33.48C20.5467 33.48 21.9733 33.2533 23.2 32.8C24.4533 32.3467 25.4667 31.6667 26.24 30.76C27.0133 29.8533 27.5333 28.7467 27.8 27.44H36.12ZM39.8666 9.2H48.0666V40H39.8666V9.2ZM52.9619 16.8L57.0819 17.6L61.1619 16.8V40H52.9619V16.8ZM57.0419 14.92C55.6285 14.92 54.4819 14.5733 53.6019 13.88C52.7219 13.16 52.2819 12.1867 52.2819 10.96C52.2819 9.76 52.7219 8.8 53.6019 8.08C54.4819 7.36 55.6285 7 57.0419 7C58.5085 7 59.6685 7.36 60.5219 8.08C61.4019 8.8 61.8419 9.76 61.8419 10.96C61.8419 12.1867 61.4019 13.16 60.5219 13.88C59.6685 14.5733 58.5085 14.92 57.0419 14.92ZM74.2572 33.48L72.0172 32.72L84.6572 17.16H93.2572L73.3772 40H66.0572V9.2H74.2572V33.48ZM78.1372 28.84L84.2972 24.52L93.8572 40H84.6572L78.1372 28.84Z" fill="white"/>
<path fill-rule="evenodd" clip-rule="evenodd" d="M102.438 22.088C101.921 20.4797 103.393 18.9504 104.941 19.4871L121.731 25.3012C123.429 25.8889 123.566 28.3317 121.943 29.1186L114.963 32.5013L111.706 39.7542C110.949 41.4398 108.599 41.2982 108.034 39.5336L102.438 22.088ZM106.194 23.39L110.096 35.5533L112.275 30.7021C112.471 30.2642 112.81 29.9123 113.231 29.7079L117.902 27.4444L106.194 23.39Z" fill="#CBE896"/>
<path d="M111.532 12.6392C111.829 12.9479 111.995 13.3665 111.995 13.803C111.995 14.2395 111.829 14.6581 111.532 14.9668L109.291 17.2977C109.144 17.4507 108.969 17.572 108.777 17.6548C108.585 17.7375 108.379 17.7801 108.171 17.7801C107.962 17.7801 107.756 17.7375 107.564 17.6548C107.372 17.572 107.197 17.4507 107.05 17.2977C106.902 17.1448 106.786 16.9632 106.706 16.7634C106.626 16.5636 106.585 16.3494 106.585 16.1331C106.585 15.9168 106.626 15.7026 106.706 15.5028C106.786 15.303 106.902 15.1214 107.05 14.9685L109.291 12.6408C109.589 12.3322 109.991 12.1589 110.411 12.1589C110.832 12.1589 111.234 12.3306 111.532 12.6392Z" fill="white"/>
<path d="M105.274 10.9108C105.274 10.4742 105.107 10.0555 104.81 9.74679C104.513 9.43808 104.11 9.26465 103.689 9.26465C103.269 9.26465 102.866 9.43808 102.569 9.74679C102.272 10.0555 102.105 10.4742 102.105 10.9108V14.203C102.105 14.6396 102.272 15.0583 102.569 15.367C102.866 15.6757 103.269 15.8491 103.689 15.8491C104.11 15.8491 104.513 15.6757 104.81 15.367C105.107 15.0583 105.274 14.6396 105.274 14.203V10.9108Z" fill="white"/>
<path d="M98.0875 12.6392C97.9414 12.482 97.7665 12.3566 97.5733 12.2703C97.38 12.184 97.1721 12.1386 96.9617 12.1367C96.7514 12.1348 96.5428 12.1765 96.3481 12.2592C96.1534 12.342 95.9765 12.4642 95.8277 12.6188C95.679 12.7734 95.5613 12.9572 95.4817 13.1595C95.402 13.3618 95.3619 13.5785 95.3638 13.7971C95.3656 14.0157 95.4093 14.2317 95.4923 14.4325C95.5753 14.6333 95.696 14.815 95.8474 14.9668L98.0875 17.2977C98.2348 17.4508 98.4097 17.5722 98.6021 17.655C98.7946 17.7379 99.0009 17.7805 99.2092 17.7805C99.4175 17.7805 99.6237 17.7379 99.8162 17.655C100.009 17.5722 100.184 17.4508 100.331 17.2977C100.478 17.1447 100.595 16.963 100.675 16.763C100.754 16.563 100.795 16.3487 100.795 16.1323C100.795 15.9158 100.754 15.7015 100.675 15.5015C100.595 15.3016 100.478 15.1199 100.331 14.9668L98.0875 12.6392Z" fill="white"/>
<path d="M100.329 26.6082C100.476 26.4554 100.593 26.2739 100.673 26.0742C100.753 25.8745 100.794 25.6604 100.794 25.4442C100.794 25.2279 100.753 25.0138 100.673 24.814C100.594 24.6143 100.477 24.4327 100.33 24.2798C100.183 24.1268 100.008 24.0055 99.8161 23.9227C99.6239 23.8399 99.4178 23.7972 99.2097 23.7971C99.0016 23.797 98.7956 23.8396 98.6033 23.9222C98.411 24.0049 98.2363 24.1261 98.0891 24.2789L95.8474 26.6099C95.5503 26.9187 95.3835 27.3376 95.3836 27.7743C95.3838 28.2109 95.5509 28.6296 95.8481 28.9383C96.1454 29.247 96.5485 29.4203 96.9688 29.4201C97.389 29.42 97.792 29.2464 98.0891 28.9375L100.329 26.6082Z" fill="white"/>
<path d="M92.5996 20.7875C92.5996 20.3509 92.7665 19.9322 93.0636 19.6235C93.3607 19.3148 93.7637 19.1414 94.1839 19.1414H97.3524C97.7726 19.1414 98.1755 19.3148 98.4726 19.6235C98.7698 19.9322 98.9367 20.3509 98.9367 20.7875C98.9367 21.2241 98.7698 21.6428 98.4726 21.9515C98.1755 22.2602 97.7726 22.4336 97.3524 22.4336H94.1839C93.7637 22.4336 93.3607 22.2602 93.0636 21.9515C92.7665 21.6428 92.5996 21.2241 92.5996 20.7875Z" fill="white"/>
</svg>
