<svg width="296" height="108" viewBox="0 0 296 108" fill="none" xmlns="http://www.w3.org/2000/svg">
<path d="M110.85 65.4081C109.911 73.8561 107.01 81.2801 102.146 87.6801C97.2816 93.9948 90.8816 98.9014 82.9456 102.4C75.095 105.899 66.0496 107.648 55.8096 107.648C44.631 107.648 34.8603 105.557 26.4976 101.376C18.135 97.1948 11.607 91.3494 6.91363 83.8401C2.30563 76.3308 0.00162506 67.5841 0.00162506 57.6001C0.00162506 47.6161 2.30563 38.8694 6.91363 31.3601C11.607 23.8508 18.135 18.0054 26.4976 13.8241C34.8603 9.64276 44.631 7.55209 55.8096 7.55209C66.0496 7.55209 75.095 9.30143 82.9456 12.8001C90.8816 16.2988 97.2816 21.2481 102.146 27.6481C107.01 33.9628 109.911 41.3441 110.85 49.7921H84.2256C83.3723 45.6961 81.7083 42.2401 79.2336 39.4241C76.759 36.5228 73.5163 34.3041 69.5056 32.7681C65.5803 31.2321 61.015 30.4641 55.8096 30.4641C49.8363 30.4641 44.6736 31.5734 40.3216 33.7921C35.9696 35.9254 32.6416 39.0401 30.3376 43.1361C28.0336 47.1468 26.8816 51.9681 26.8816 57.6001C26.8816 63.2321 28.0336 68.0961 30.3376 72.1921C32.6416 76.2028 35.9696 79.3174 40.3216 81.5361C44.6736 83.6694 49.8363 84.7361 55.8096 84.7361C61.015 84.7361 65.5803 84.0108 69.5056 82.5601C73.5163 81.1094 76.759 78.9334 79.2336 76.0321C81.7083 73.1308 83.3723 69.5894 84.2256 65.4081H110.85ZM122.839 7.04009H149.079V105.6H122.839V7.04009ZM164.744 31.3601L177.928 33.9201L190.984 31.3601V105.6H164.744V31.3601ZM177.8 25.3441C173.277 25.3441 169.608 24.2348 166.792 22.0161C163.976 19.7121 162.568 16.5974 162.568 12.6721C162.568 8.83209 163.976 5.76009 166.792 3.45609C169.608 1.15209 173.277 9.15527e-05 177.8 9.15527e-05C182.493 9.15527e-05 186.205 1.15209 188.936 3.45609C191.752 5.76009 193.16 8.83209 193.16 12.6721C193.16 16.5974 191.752 19.7121 188.936 22.0161C186.205 24.2348 182.493 25.3441 177.8 25.3441ZM232.889 84.7361L225.721 82.3041L266.169 32.5121H293.689L230.073 105.6H206.649V7.04009H232.889V84.7361ZM245.305 69.8881L265.017 56.0641L295.609 105.6H266.169L245.305 69.8881Z" fill="#1D1D1D"/>
</svg>
