<svg width="21" height="21" viewBox="0 0 21 21" fill="none" xmlns="http://www.w3.org/2000/svg">
<path d="M9 13H6C4.67392 13 3.40215 13.5268 2.46447 14.4645C1.52678 15.4021 1 16.6739 1 18V19H9.05M16 12V16M16 16V20M16 16H12M16 16H20M14 5.5C14 6.69347 13.5259 7.83807 12.682 8.68198C11.8381 9.52589 10.6935 10 9.5 10C8.30653 10 7.16193 9.52589 6.31802 8.68198C5.47411 7.83807 5 6.69347 5 5.5C5 4.30653 5.47411 3.16193 6.31802 2.31802C7.16193 1.47411 8.30653 1 9.5 1C10.6935 1 11.8381 1.47411 12.682 2.31802C13.5259 3.16193 14 4.30653 14 5.5Z" stroke="white" stroke-width="2" stroke-linecap="square"/>
</svg>
