<svg width="26" height="26" viewBox="0 0 26 26" fill="none" xmlns="http://www.w3.org/2000/svg">
<path d="M19.0919 8.18283L14.5462 12.7285L19.0919 17.2742C19.333 17.5153 19.4685 17.8423 19.4685 18.1833C19.4685 18.5243 19.333 18.8514 19.0919 19.0925C18.8508 19.3336 18.5237 19.4691 18.1827 19.4691C17.8418 19.4691 17.5147 19.3336 17.2736 19.0925L12.7279 14.5468L8.18224 19.0925C7.94112 19.3336 7.61409 19.4691 7.2731 19.4691C6.93211 19.4691 6.60508 19.3336 6.36396 19.0925C6.12284 18.8514 5.98738 18.5243 5.98738 18.1833C5.98738 17.8423 6.12284 17.5153 6.36396 17.2742L10.9096 12.7285L6.36396 8.18283C6.12284 7.94171 5.98738 7.61468 5.98738 7.27369C5.98738 6.9327 6.12284 6.60567 6.36396 6.36455C6.60508 6.12344 6.9321 5.98798 7.2731 5.98798C7.61409 5.98798 7.94112 6.12344 8.18224 6.36455L12.7279 10.9102L17.2736 6.36456C17.5147 6.12344 17.8418 5.98798 18.1827 5.98798C18.5237 5.98798 18.8508 6.12344 19.0919 6.36456C19.333 6.60567 19.4685 6.9327 19.4685 7.27369C19.4685 7.61468 19.333 7.94171 19.0919 8.18283Z" fill="#7D7D7D"/>
<circle cx="12.7285" cy="12.7285" r="11" stroke="#A9A9A9" stroke-width="2"/>
</svg>
